<svg xmlns="http://www.w3.org/2000/svg" viewBox="0 0 400 400">
  <defs>
    <filter id="glow-c" x="-50%" y="-50%" width="200%" height="200%">
      <feGaussianBlur stdDeviation="10" result="b1"/>
      <feGaussianBlur stdDeviation="22" result="b2"/>
      <feMerge><feMergeNode in="b2"/><feMergeNode in="b1"/><feMergeNode in="SourceGraphic"/></feMerge>
    </filter>
    <filter id="glow-g" x="-50%" y="-50%" width="200%" height="200%">
      <feGaussianBlur stdDeviation="7" result="b1"/>
      <feGaussianBlur stdDeviation="18" result="b2"/>
      <feMerge><feMergeNode in="b2"/><feMergeNode in="b1"/><feMergeNode in="SourceGraphic"/></feMerge>
    </filter>
    <linearGradient id="gm" x1="0%" y1="0%" x2="100%" y2="100%">
      <stop offset="0%" stop-color="#00f0ff"/>
      <stop offset="60%" stop-color="#00c8f0"/>
      <stop offset="100%" stop-color="#6b2fff"/>
    </linearGradient>
    <linearGradient id="ga" x1="0%" y1="0%" x2="100%" y2="100%">
      <stop offset="0%" stop-color="#ffe066"/>
      <stop offset="100%" stop-color="#ff9f00"/>
    </linearGradient>
  </defs>
  <g fill="url(#gm)" filter="url(#glow-c)" opacity="0.55">
    <path d="M 251 207 L 206 232 L 206 272 L 256 299 L 316 266 L 317 250 L 253 250 Z"/>
    <path d="M 207 67 L 205 173 L 145 172 L 145 103 L 99 129 L 99 263 L 145 289 L 146 219 L 206 219 L 252 194 L 252 92 Z"/>
  </g>
  <g fill="url(#gm)">
    <path d="M 251 207 L 206 232 L 206 272 L 256 299 L 316 266 L 317 250 L 253 250 Z"/>
    <path d="M 207 67 L 205 173 L 145 172 L 145 103 L 99 129 L 99 263 L 145 289 L 146 219 L 206 219 L 252 194 L 252 92 Z"/>
  </g>
  <path d="M 206 285 L 206 327 L 244 306 Z" fill="url(#ga)" filter="url(#glow-g)"/>
  <path d="M 206 285 L 206 327 L 244 306 Z" fill="url(#ga)"/>
</svg>
